<?xml version="1.0" encoding="iso-8859-1"?>
<!-- Generator: Adobe Illustrator 15.0.0, SVG Export Plug-In . SVG Version: 6.00 Build 0)  -->
<!DOCTYPE svg PUBLIC "-//W3C//DTD SVG 1.1//EN" "http://www.w3.org/Graphics/SVG/1.1/DTD/svg11.dtd">
<svg version="1.1" id="&#x30EC;&#x30A4;&#x30E4;&#x30FC;_1"
	 xmlns="http://www.w3.org/2000/svg" xmlns:xlink="http://www.w3.org/1999/xlink" x="0px" y="0px" width="64px" height="64px"
	 viewBox="0 0 64 64" style="enable-background:new 0 0 64 64;" xml:space="preserve">
<g>
	<path d="M50.09,15c1.973,0,7.91,0.005,7.91,6.5v3c0,1.641,0.5,6.5-7.91,6.5H14.91C6.5,31,6,26.141,6,24.5v-3
		c0-6.495,6.937-6.5,8.91-6.5H50 M50.09,12H14.91C8.608,12,3,14.873,3,21.5v3C3,31.127,8.608,34,14.91,34h35.18
		C56.391,34,61,31.127,61,24.5v-3C61,14.873,56.391,12,50.09,12L50.09,12z"/>
</g>
<g>
	<path d="M50.09,38c7.777,0,7.91,1.766,7.91,4.5v5c0,2.734-0.133,5.5-7.91,5.5H14.91C7.133,53,6,50.234,6,47.5v-5
		c0-2.734,1.133-4.5,8.91-4.5H50 M50.09,35H14.91C8.608,35,3,35.873,3,42.5v5C3,54.127,8.608,56,14.91,56h35.18
		C56.391,56,61,54.127,61,47.5v-5C61,35.873,56.391,35,50.09,35L50.09,35z"/>
</g>
<g id="&#x30EC;&#x30A4;&#x30E4;&#x30FC;_2">
	<g>
		<line style="fill:none;stroke:#000000;stroke-width:4;stroke-miterlimit:10;" x1="40" y1="46" x2="54" y2="46"/>
		<line style="fill:none;stroke:#000000;stroke-width:4;stroke-miterlimit:10;" x1="47" y1="40" x2="47" y2="52"/>
	</g>
</g>
</svg>
