<?xml version="1.0" encoding="iso-8859-1"?>
<!-- Generator: Adobe Illustrator 15.0.0, SVG Export Plug-In . SVG Version: 6.00 Build 0)  -->
<!DOCTYPE svg PUBLIC "-//W3C//DTD SVG 1.1//EN" "http://www.w3.org/Graphics/SVG/1.1/DTD/svg11.dtd">
<svg version="1.1" id="&#x30EC;&#x30A4;&#x30E4;&#x30FC;_1"
	 xmlns="http://www.w3.org/2000/svg" xmlns:xlink="http://www.w3.org/1999/xlink" x="0px" y="0px" width="64px" height="64px"
	 viewBox="0 0 64 64" style="enable-background:new 0 0 64 64;" xml:space="preserve">
<g>
	<path d="M50.09,18c2.983,0,4.91,2.191,4.91,5.5v20c0,3.309-1.927,6.5-4.91,6.5H14.91C11.927,50,9,46.809,9,43.5v-20
		c0-3.309,2.927-5.5,5.91-5.5H50 M50.09,12H14.91C8.608,12,3,16.873,3,23.5v20C3,50.127,8.608,56,14.91,56h35.18
		C56.391,56,61,50.127,61,43.5v-20C61,16.873,56.391,12,50.09,12L50.09,12z"/>
</g>
<g id="&#x30EC;&#x30A4;&#x30E4;&#x30FC;_2">
	<g>
		<line style="fill:none;stroke:#000000;stroke-width:6;stroke-miterlimit:10;" x1="37.637" y1="46.363" x2="50.363" y2="33.636"/>
		<line style="fill:none;stroke:#000000;stroke-width:6;stroke-miterlimit:10;" x1="37.637" y1="33.636" x2="50.363" y2="46.363"/>
	</g>
</g>
</svg>
