<?xml version="1.0" encoding="iso-8859-1"?>
<!-- Generator: Adobe Illustrator 15.0.0, SVG Export Plug-In . SVG Version: 6.00 Build 0)  -->
<!DOCTYPE svg PUBLIC "-//W3C//DTD SVG 1.1//EN" "http://www.w3.org/Graphics/SVG/1.1/DTD/svg11.dtd">
<svg version="1.1" id="&#x30EC;&#x30A4;&#x30E4;&#x30FC;_1"
	 xmlns="http://www.w3.org/2000/svg" xmlns:xlink="http://www.w3.org/1999/xlink" x="0px" y="0px" width="64px" height="64px"
	 viewBox="0 0 64 64" style="enable-background:new 0 0 64 64;" xml:space="preserve">
<g>
	<path d="M50.09,18c2.983,0,4.91,2.191,4.91,5.5v20c0,3.309-1.927,6.5-4.91,6.5H14.91C11.927,50,9,46.809,9,43.5v-20
		c0-3.309,2.927-5.5,5.91-5.5H50 M50.09,12H14.91C8.608,12,3,16.873,3,23.5v20C3,50.127,8.608,56,14.91,56h35.18
		C56.391,56,61,50.127,61,43.5v-20C61,16.873,56.391,12,50.09,12L50.09,12z"/>
</g>
<g>
	<path d="M50.135,29C52.854,29,55,31.292,55,33.605v11.996C55,47.917,52.854,50,50.135,50H25.687C22.969,50,21,47.917,21,45.604
		V33.605C21,31.292,22.969,29,25.687,29H50 M50.135,26H25.687C21.308,26,18,29.631,18,33.605v11.996C18,49.577,21.308,53,25.687,53
		h24.448C54.514,53,58,49.577,58,45.604V33.605C58,29.631,54.514,26,50.135,26L50.135,26z"/>
</g>
<g id="&#x30EC;&#x30A4;&#x30E4;&#x30FC;_2">
	<line style="fill:none;stroke:#000000;stroke-width:6;stroke-miterlimit:10;" x1="35" y1="40" x2="53" y2="40"/>
	<line style="fill:none;stroke:#000000;stroke-width:6;stroke-miterlimit:10;" x1="44" y1="32" x2="44" y2="48"/>
</g>
</svg>
