<?xml version="1.0" encoding="utf-8"?>
<!-- Generator: Adobe Illustrator 15.0.0, SVG Export Plug-In . SVG Version: 6.00 Build 0)  -->
<!DOCTYPE svg PUBLIC "-//W3C//DTD SVG 1.1//EN" "http://www.w3.org/Graphics/SVG/1.1/DTD/svg11.dtd">
<svg version="1.1" xmlns="http://www.w3.org/2000/svg" xmlns:xlink="http://www.w3.org/1999/xlink" x="0px" y="0px" width="64px"
	 height="64px" viewBox="0 0 64 64" enable-background="new 0 0 64 64" xml:space="preserve">
<g id="レイヤー_1">
	<g>
		<path fill="#FFFFFF" d="M58,44c0,4.971-3.766,9-8.41,9H14.41C9.765,53,6,48.971,6,44V24c0-4.971,3.765-9,8.41-9h35.18
			c4.645,0,8.41,4.029,8.41,9V44z"/>
		<path d="M50.09,18c2.983,0,4.91,2.191,4.91,5.5v20c0,3.309-1.927,6.5-4.91,6.5H14.91C11.927,50,9,46.809,9,43.5v-20
			c0-3.309,2.927-5.5,5.91-5.5H50 M50.09,12H14.91C8.608,12,3,16.873,3,23.5v20C3,50.127,8.608,56,14.91,56h35.18
			C56.391,56,61,50.127,61,43.5v-20C61,16.873,56.391,12,50.09,12L50.09,12z"/>
	</g>
</g>
<g id="レイヤー_2">
	<line fill="#FFFFFF" stroke="#000000" stroke-width="6" stroke-miterlimit="10" x1="35" y1="40" x2="53" y2="40"/>
	<line fill="#FFFFFF" stroke="#000000" stroke-width="6" stroke-miterlimit="10" x1="44" y1="32" x2="44" y2="48"/>
</g>
</svg>
