<svg xmlns="http://www.w3.org/2000/svg" version="1.1" xmlns:xlink="http://www.w3.org/1999/xlink" xmlns:svgjs="http://svgjs.com/svgjs" width="24" height="24">
    <!-- generated by vecterion_vge 2022.12.1-alpha -->
    <g>
        <path d="M0.9125475285171104 16.306576538515703C0.9125475285171104 16.306576538515703 22.661596958174908 16.26855372482749 22.661596958174908 16.26855372482749 " stroke="#000000ff" stroke-width="1" stroke-linecap="butt" stroke-linejoin="miter" fill="#ffffffff"></path>
        <path d="M9.359356697886481 14.399612729551146C9.359356697886481 14.399612729551146 11.252408112583769 16.292664144248434 11.252408112583769 16.292664144248434C11.252408112583769 16.292664144248434 9.359356697886481 18.18571555894572 9.359356697886481 18.18571555894572C9.359356697886481 18.18571555894572 7.466305283189193 16.292664144248434 7.466305283189193 16.292664144248434C7.466305283189193 16.292664144248434 9.359356697886481 14.399612729551146 9.359356697886481 14.399612729551146Z " stroke="#00000000" stroke-width="1" stroke-linecap="butt" stroke-linejoin="miter" fill="#000000ff"></path>
        <path d="M17.390085903393892 1.8250950570342184C17.390085903393892 1.8250950570342184 17.4281087170821 23.574144486692013 17.4281087170821 23.574144486692013 " stroke="#000000ff" stroke-width="1" stroke-linecap="butt" stroke-linejoin="miter" fill="#ffffffff"></path>
        <path d="M17.38758035323242 9.378852811706295C17.38758035323242 9.378852811706295 19.28063176793037 11.271904226402919 19.28063176793037 11.271904226402919C19.28063176793037 11.271904226402919 17.387580353233748 13.164955641100871 17.387580353233748 13.164955641100871C17.387580353233748 13.164955641100871 15.494528938535796 11.271904226404247 15.494528938535796 11.271904226404247C15.494528938535796 11.271904226404247 17.38758035323242 9.378852811706295 17.38758035323242 9.378852811706295Z " stroke="#00000000" stroke-width="1" stroke-linecap="butt" stroke-linejoin="miter" fill="#000000ff"></path>
    </g>
</svg>