<?xml version="1.0" encoding="utf-8"?>
<!-- Generator: Adobe Illustrator 15.0.0, SVG Export Plug-In . SVG Version: 6.00 Build 0)  -->
<!DOCTYPE svg PUBLIC "-//W3C//DTD SVG 1.1//EN" "http://www.w3.org/Graphics/SVG/1.1/DTD/svg11.dtd">
<svg version="1.1" id="レイヤー_1" xmlns="http://www.w3.org/2000/svg" xmlns:xlink="http://www.w3.org/1999/xlink" x="0px"
	 y="0px" width="24px" height="24px" viewBox="0 0 24 24" enable-background="new 0 0 24 24" xml:space="preserve">
<g>
	<g>
		<path d="M3.285,2.394l7.985,4.278l-0.128,7.432l-0.006,0.334l0.167,0.287l3.097,5.367l-1.471,0.85l-3.098-5.367L9.67,15.293
			l-0.28-0.161L2.997,11.46L3.285,2.394 M2.147,0.423L1.774,12.142l7.018,4.031l3.698,6.407l3.549-2.051l-3.698-6.406l0.141-8.164
			L2.147,0.423L2.147,0.423z"/>
	</g>
	<path fill="none" stroke="#000000" stroke-miterlimit="10" d="M2.479,1.947l2.5,4.33L2.479,1.947z"/>
</g>
<line fill="#FFFFFF" stroke="#000000" stroke-miterlimit="10" x1="15" y1="5" x2="23" y2="5"/>
<line fill="#FFFFFF" stroke="#000000" stroke-miterlimit="10" x1="19" y1="1" x2="19" y2="8.875"/>
</svg>
