<?xml version="1.0" encoding="utf-8"?>
<!-- Generator: Adobe Illustrator 15.0.0, SVG Export Plug-In . SVG Version: 6.00 Build 0)  -->
<!DOCTYPE svg PUBLIC "-//W3C//DTD SVG 1.1//EN" "http://www.w3.org/Graphics/SVG/1.1/DTD/svg11.dtd">
<svg version="1.1" id="レイヤー_1" xmlns="http://www.w3.org/2000/svg" xmlns:xlink="http://www.w3.org/1999/xlink" x="0px"
	 y="0px" width="24px" height="24px" viewBox="0 0 24 24" enable-background="new 0 0 24 24" xml:space="preserve">
<symbol  id="新規シンボル" viewBox="-9 -15 16 30.933">
	<polygon points="-8.128,5 -0.586,15.933 6.954,5 	"/>
	<polygon points="2,-15 -3,-15 -3,7 2,7 	"/>
	<polygon display="none" fill="none" points="-9,15 7,15 7,-15 -9,-15 	"/>
</symbol>
<use xlink:href="#新規シンボル"  width="16" height="30.933" id="XMLID_1_" x="-9" y="-15" transform="matrix(1 0 0 -1 41 17)" overflow="visible"/>
<g>
	<g>
		<path d="M3.285,2.394l7.985,4.278l-0.128,7.432l-0.006,0.333l0.167,0.288l3.098,5.367l-1.471,0.85l-3.098-5.368L9.67,15.293
			l-0.28-0.161L2.997,11.46L3.285,2.394 M2.147,0.423L1.774,12.142l7.018,4.031l3.698,6.407l3.549-2.051l-3.698-6.406l0.141-8.164
			L2.147,0.423L2.147,0.423z"/>
	</g>
	<path fill="none" stroke="#000000" stroke-miterlimit="10" d="M2.479,1.947l2.5,4.33L2.479,1.947z"/>
</g>
</svg>
